<svg width="24" height="24" viewBox="0 0 24 24" fill="none" xmlns="http://www.w3.org/2000/svg">
<path d="M22 24H21.9998L15.999 23.9992C15.4688 23.9986 14.9605 23.7932 14.5856 23.4282C14.2108 23.0632 13.9999 22.5683 13.9993 22.0521V16.2108H9.99927V22.0521C9.99865 22.5683 9.78778 23.0632 9.41289 23.4282C9.038 23.7932 8.52971 23.9986 7.99951 23.9992L2.00025 24C1.73758 24 1.47749 23.9497 1.23481 23.8519C0.992125 23.754 0.771617 23.6106 0.585873 23.4298C0.400129 23.249 0.252787 23.0343 0.152263 22.7981C0.051738 22.5618 -9.87161e-07 22.3086 0 22.0529V10.8011C0.000243092 10.5299 0.0585886 10.2616 0.171311 10.0136C0.284033 9.76552 0.448655 9.54306 0.654663 9.36042L10.6538 0.509225C11.0211 0.181712 11.5011 3.28921e-05 11.9992 4.46576e-09C12.4972 -3.28831e-05 12.9773 0.181583 13.3446 0.509047L23.3455 9.36048C23.5514 9.54315 23.716 9.76562 23.8287 10.0137C23.9414 10.2617 23.9997 10.5299 24 10.8012V22.0529C24 22.3086 23.9483 22.5618 23.8478 22.798C23.7473 23.0343 23.5999 23.2489 23.4142 23.4297C23.2285 23.6105 23.008 23.7539 22.7654 23.8518C22.5227 23.9496 22.2626 24 22 24ZM9.99927 14.2637H13.9993C14.5295 14.2643 15.0379 14.4696 15.4128 14.8346C15.7878 15.1996 15.9987 15.6945 15.9993 16.2108V22.0534L22 22.0529V10.8012L11.9993 1.94981L2 10.8011V22.0529L7.99927 22.0521V16.2108C7.99988 15.6945 8.21078 15.1996 8.58573 14.8346C8.96067 14.4696 9.46902 14.2643 9.99927 14.2637Z" fill="white"/>
</svg>
