<svg width="32" height="32" viewBox="0 0 32 32" fill="none" xmlns="http://www.w3.org/2000/svg">
<path d="M32 9.83678L11.0729 30.7987L9.83678 29.5452L7.38194 32L4.9271 29.5452L7.38194 27.0729L4.9271 24.6181L2.45484 27.0729L0 24.6181L2.45484 22.1632L1.20131 20.9271L22.1632 0L32 9.83678ZM27.0729 9.83678L22.1632 4.92709L6.14581 20.9271L11.0729 25.8542L27.0729 9.83678ZM24.6181 9.83678L22.1632 12.309L19.691 9.83678L22.1632 7.38194L24.6181 9.83678ZM20.9271 13.5452L18.4548 16L16 13.5452L18.4548 11.0729L20.9271 13.5452ZM17.2361 17.2361L14.7639 19.691L12.309 17.2361L14.7639 14.7639L17.2361 17.2361ZM13.5452 20.9271L11.0729 23.3819L8.61806 20.9271L11.0729 18.4548L13.5452 20.9271Z" fill="white"/>
</svg>
