<svg width="24" height="24" viewBox="0 0 24 24" fill="none" xmlns="http://www.w3.org/2000/svg">
<path d="M12 24C5.38047 24 0 18.6195 0 12C0 5.38047 5.38047 0 12 0C18.6195 0 24 5.38047 24 12C24 18.6195 18.6195 24 12 24ZM12 1.67442C6.30698 1.67442 1.67442 6.30698 1.67442 12C1.67442 17.693 6.30698 22.3256 12 22.3256C17.693 22.3256 22.3256 17.693 22.3256 12C22.3256 6.30698 17.693 1.67442 12 1.67442Z" fill="#888888"/>
<path d="M16.141 16.387C15.9958 16.387 15.8507 16.3535 15.7168 16.2642L12.2563 14.1991C11.3968 13.6856 10.7605 12.5581 10.7605 11.5647V6.98792C10.7605 6.53025 11.14 6.15071 11.5977 6.15071C12.0554 6.15071 12.4349 6.53025 12.4349 6.98792V11.5647C12.4349 11.9665 12.7698 12.5581 13.1158 12.7591L16.5763 14.8242C16.9782 15.0586 17.101 15.5721 16.8665 15.974C16.6991 16.2419 16.42 16.387 16.141 16.387Z" fill="#888888"/>
</svg>
