<svg width="26" height="26" viewBox="0 0 26 26" fill="none" xmlns="http://www.w3.org/2000/svg">
<path d="M24.6615 10.1111H22.229C21.8381 10.1111 21.516 9.89589 21.3662 9.53478C21.2165 9.17367 21.2926 8.7933 21.5684 8.51693L23.2883 6.79756C23.5411 6.54478 23.6802 6.20822 23.6802 5.85096C23.6802 5.49322 23.5411 5.15715 23.2883 4.90389L21.0961 2.7117C20.5906 2.20615 19.709 2.20519 19.2024 2.7117L17.4831 4.43107C17.2067 4.70696 16.8254 4.784 16.4652 4.63378C16.1041 4.48404 15.8889 4.16193 15.8889 3.77096V1.33852C15.8889 0.600407 15.2885 0 14.5504 0H11.4496C10.7115 0 10.1111 0.600407 10.1111 1.33852V3.77096C10.1111 4.16193 9.89589 4.48404 9.53478 4.63378C9.17463 4.78448 8.7933 4.70696 8.51693 4.43107L6.79756 2.7117C6.29104 2.20519 5.40944 2.20615 4.90389 2.7117L2.7117 4.90389C2.45893 5.15667 2.31978 5.49322 2.31978 5.85096C2.31978 6.20822 2.45893 6.5443 2.7117 6.79756L4.43156 8.51693C4.70744 8.7933 4.78304 9.17367 4.63378 9.53478C4.48452 9.89589 4.16193 10.1111 3.77096 10.1111H1.33852C0.600407 10.1111 0 10.7115 0 11.4496V14.5499C0 15.2885 0.600407 15.8889 1.33852 15.8889H3.77096C4.16193 15.8889 4.48404 16.1041 4.63378 16.4652C4.78352 16.8263 4.70744 17.2067 4.43156 17.4831L2.7117 19.2024C2.45893 19.4552 2.31978 19.7918 2.31978 20.149C2.31978 20.5068 2.45893 20.8429 2.7117 21.0961L4.90389 23.2883C5.40993 23.7943 6.29104 23.7953 6.79756 23.2883L8.51693 21.5684C8.7933 21.2926 9.17319 21.2165 9.53478 21.3662C9.89589 21.516 10.1111 21.8381 10.1111 22.229V24.6615C10.1111 25.3996 10.7115 26 11.4496 26H14.5499C15.288 26 15.8884 25.3996 15.8884 24.6615V22.229C15.8884 21.8381 16.1036 21.516 16.4647 21.3662C16.8263 21.216 17.2062 21.2926 17.4826 21.5684L19.202 23.2883C19.7085 23.7948 20.5901 23.7939 21.0956 23.2883L23.2878 21.0961C23.5406 20.8433 23.6797 20.5068 23.6797 20.149C23.6797 19.7918 23.5406 19.4557 23.2878 19.2024L21.568 17.4831C21.2921 17.2067 21.2165 16.8263 21.3657 16.4652C21.515 16.1041 21.8381 15.8889 22.229 15.8889H24.6615C25.3996 15.8889 26 15.2885 26 14.5504V11.4496C26 10.7115 25.3996 10.1111 24.6615 10.1111ZM25.037 14.5504C25.037 14.7574 24.8685 14.9259 24.6615 14.9259H22.229C21.4471 14.9259 20.7754 15.3747 20.4764 16.0969C20.177 16.8191 20.3344 17.6116 20.8876 18.1644L22.6075 19.8837C22.7543 20.0306 22.7543 20.2689 22.6075 20.4153L20.4153 22.6075C20.2689 22.7539 20.0306 22.7548 19.8837 22.6075L18.1644 20.8876C17.6111 20.3344 16.8191 20.1779 16.0969 20.4764C15.3747 20.7754 14.9259 21.4471 14.9259 22.229V24.6615C14.9259 24.8685 14.7574 25.037 14.5504 25.037H11.4496C11.2426 25.037 11.0741 24.8685 11.0741 24.6615V22.229C11.0741 21.4471 10.6253 20.7754 9.90311 20.4764C9.66093 20.3758 9.41152 20.3267 9.165 20.3267C8.67678 20.3267 8.20348 20.5193 7.83563 20.8871L6.11626 22.607C5.96893 22.7543 5.73059 22.7534 5.5847 22.607L3.39252 20.4148C3.24567 20.268 3.24567 20.0296 3.39252 19.8833L5.11237 18.1639C5.66511 17.6111 5.82304 16.8186 5.52356 16.0964C5.22456 15.3747 4.55289 14.9259 3.77096 14.9259H1.33852C1.13148 14.9259 0.962963 14.7574 0.962963 14.5504V11.4496C0.962963 11.2426 1.13148 11.0741 1.33852 11.0741H3.77096C4.55289 11.0741 5.22456 10.6253 5.52356 9.90311C5.82304 9.18089 5.66559 8.38837 5.11237 7.83563L3.39252 6.11626C3.24567 5.96941 3.24567 5.73107 3.39252 5.5847L5.5847 3.39252C5.73107 3.24567 5.96941 3.24567 6.11626 3.39252L7.83563 5.11189C8.38789 5.66415 9.17993 5.82256 9.90311 5.52307C10.6253 5.22456 11.0741 4.55289 11.0741 3.77096V1.33852C11.0741 1.13148 11.2426 0.962963 11.4496 0.962963H14.5499C14.7574 0.962963 14.9259 1.13148 14.9259 1.33852V3.77096C14.9259 4.55289 15.3747 5.22456 16.0969 5.52356C16.8201 5.82304 17.6116 5.66511 18.1644 5.11237L19.8837 3.393C20.0311 3.24615 20.2694 3.24615 20.4153 3.393L22.6075 5.58519C22.7543 5.73204 22.7543 5.97037 22.6075 6.11674L20.8876 7.83611C20.3349 8.38885 20.177 9.18137 20.4764 9.90359C20.7754 10.6258 21.4471 11.0746 22.229 11.0746H24.6615C24.8685 11.0741 25.037 11.2426 25.037 11.4496V14.5504Z" fill="#888888"/>
<path d="M13 8.66666C10.6104 8.66666 8.66666 10.6104 8.66666 13C8.66666 15.3896 10.6104 17.3333 13 17.3333C15.3896 17.3333 17.3333 15.3896 17.3333 13C17.3333 10.6104 15.3896 8.66666 13 8.66666ZM13 16.3704C11.142 16.3704 9.62962 14.858 9.62962 13C9.62962 11.142 11.142 9.62963 13 9.62963C14.858 9.62963 16.3704 11.142 16.3704 13C16.3704 14.858 14.858 16.3704 13 16.3704Z" fill="#888888"/>
</svg>
